<svg width="22" height="23" viewBox="0 0 22 23" fill="none" xmlns="http://www.w3.org/2000/svg">
<path d="M18.2596 5.0105H7.58657C6.0731 5.0105 4.84619 6.28984 4.84619 7.86799V18.9972C4.84619 20.5753 6.0731 21.8547 7.58657 21.8547H18.2596C19.7731 21.8547 21 20.5753 21 18.9972V7.86799C21 6.28984 19.7731 5.0105 18.2596 5.0105Z" stroke="#DC0101" stroke-width="1.5" stroke-linejoin="round"/>
<path d="M17.1298 5.01052L17.1538 3.80736C17.1518 3.06345 16.8675 2.35062 16.363 1.8246C15.8586 1.29857 15.175 1.00212 14.4615 1H4.07692C3.26161 1.00251 2.48038 1.34135 1.90387 1.9425C1.32736 2.54365 1.00241 3.35826 1 4.20841V15.0368C1.00203 15.7807 1.28633 16.4936 1.7908 17.0196C2.29527 17.5456 2.97889 17.8421 3.69231 17.8442H4.84615" stroke="#DC0101" stroke-width="1.5" stroke-linecap="round" stroke-linejoin="round"/>
</svg>
